<svg width="101" height="48" viewBox="0 0 101 48" fill="none" xmlns="http://www.w3.org/2000/svg">
<path d="M0 21.63V1.62H4.86V21.63H0Z" fill="#3F3BFE"/>
<path d="M8.96133 7.74C9.46133 7.46 10.1613 7.19 11.0613 6.93C11.9813 6.67 12.9513 6.46 13.9713 6.3C15.0113 6.12 15.9613 6.03 16.8213 6.03C18.8613 6.03 20.4413 6.43 21.5613 7.23C22.7013 8.03 23.2713 9.43 23.2713 11.43V21.63H18.8013V12.33C18.8013 11.55 18.5813 10.92 18.1413 10.44C17.7013 9.96 16.9413 9.72 15.8613 9.72C15.4013 9.72 14.9413 9.78 14.4813 9.9C14.0213 10 13.6713 10.11 13.4313 10.23V21.63H8.96133V7.74Z" fill="#3F3BFE"/>
<path d="M28.3826 21.63V9.87H26.1626V6.45H28.4126V6.09C28.4126 4.45 28.6726 3.19 29.1926 2.31C29.7326 1.43 30.4426 0.829999 31.3226 0.509999C32.2026 0.17 33.1626 0 34.2026 0C34.5226 0 34.8726 0.0299995 35.2526 0.0899987C35.6326 0.149999 35.9426 0.22 36.1826 0.3V4.23C35.9826 4.05 35.7726 3.9 35.5526 3.78C35.3526 3.64 35.0626 3.57 34.6826 3.57C34.1626 3.57 33.7326 3.71 33.3926 3.99C33.0526 4.25 32.8826 4.77 32.8826 5.55V6.45H36.1826V9.87H32.8526V21.63H28.3826ZM38.8826 4.38V0.929999H43.5026V4.38H38.8826ZM38.9726 21.63V6.66H43.4426L43.4726 21.63H38.9726Z" fill="#3F3BFE"/>
<path d="M47.4574 7.74C47.9574 7.46 48.6574 7.19 49.5574 6.93C50.4774 6.67 51.4474 6.46 52.4674 6.3C53.5074 6.12 54.4574 6.03 55.3174 6.03C57.3574 6.03 58.9374 6.43 60.0574 7.23C61.1974 8.03 61.7674 9.43 61.7674 11.43V21.63H57.2974V12.33C57.2974 11.55 57.0774 10.92 56.6374 10.44C56.1974 9.96 55.4374 9.72 54.3574 9.72C53.8974 9.72 53.4374 9.78 52.9774 9.9C52.5174 10 52.1674 10.11 51.9274 10.23V21.63H47.4574V7.74Z" fill="#3F3BFE"/>
<path d="M65.7387 4.38V0.929999H70.3587V4.38H65.7387ZM65.8287 21.63V6.66H70.2987L70.3287 21.63H65.8287Z" fill="#3F3BFE"/>
<path d="M80.5327 22.23C78.7727 22.23 77.4627 21.82 76.6027 21C75.7427 20.16 75.3127 18.98 75.3127 17.46V9.87H73.0927V6.45H75.3127V2.28H79.9927V6.45H83.3227V9.87H79.9927V16.89C79.9927 17.41 80.1027 17.8 80.3227 18.06C80.5427 18.3 80.9127 18.42 81.4327 18.42C82.1327 18.42 82.7627 18.21 83.3227 17.79V21.6C82.8827 21.84 82.4227 22 81.9427 22.08C81.4627 22.18 80.9927 22.23 80.5327 22.23Z" fill="#3F3BFE"/>
<path d="M84.4852 6.4502L89.87 20.6302L88.37 24.1302H93.37L100.805 6.4502H96.0052L92.8252 16.4102L89.5852 6.4502H84.4852Z" fill="#3F3BFE"/>
<path d="M13.37 11.6299L10.87 13.1299V14.6299L13.37 13.6299V11.6299Z" fill="#3F3BFE"/>
<path d="M54.79 27.4704C53.533 26.9101 52.1627 26.4999 50.6791 26.4999C49.6488 26.4999 47.783 26.7998 47 26.9999C46.217 27.2 44 27.9999 41 31.5229L44 34.4047C44 34.4047 45.7336 32.4999 47 31.523C48.2664 30.546 49.2973 30.052 50.6791 30.052C52.0609 30.052 52.7994 30.7625 53.5 31.5229C54.18 32.2834 54.2955 33.4141 54.2955 34.9151C54.2955 36.336 53.9039 37.3566 53.1209 37.977C52.3173 38.6174 51.2664 38.9376 49.9682 38.9376C49.247 38.9376 48.5464 38.8275 47.8664 38.6074C47.1658 38.3872 46.4548 38.1271 45.7336 37.8269L45.7336 41.6693C46.4136 41.9695 47.207 42.1996 48.1136 42.3597C48.9997 42.5398 49.8651 42.6299 50.71 42.6299C52.2967 42.6299 53.7082 42.3297 54.9445 41.7293C56.1603 41.1289 57.1185 40.2184 57.8191 38.9976C58.5197 37.7969 58.87 36.2659 58.87 34.4047C58.87 32.6637 58.4991 31.2128 57.7573 30.052C57.0155 28.9113 56.0264 28.0508 54.79 27.4704Z" fill="#3F3BFE"/>
<path d="M28.08 41.1595C29.337 41.7198 30.7073 42.13 32.1909 42.13C33.2212 42.13 35.087 41.8301 35.87 41.63C36.653 41.4299 38.87 40.63 41.87 37.1069L38.87 34.2251C38.87 34.2251 37.1364 36.13 35.87 37.1069C34.6036 38.0839 33.5727 38.5779 32.1909 38.5779C30.8091 38.5779 30.0706 37.8674 29.37 37.1069C28.69 36.3465 28.5745 35.2158 28.5745 33.7148C28.5745 32.2939 28.9661 31.2733 29.7491 30.6529C30.5527 30.0125 31.6036 29.6923 32.9018 29.6923C33.623 29.6923 34.3236 29.8024 35.0036 30.0225C35.7042 30.2427 36.4152 30.5028 37.1364 30.803V26.9606C36.4564 26.6604 35.663 26.4303 34.7564 26.2702C33.8703 26.0901 33.0048 26 32.16 26C30.5733 26 29.1618 26.3002 27.9255 26.9006C26.7097 27.5009 25.7515 28.4115 25.0509 29.6323C24.3503 30.833 24 32.364 24 34.2251C24 35.9662 24.3709 37.4171 25.1127 38.5779C25.8545 39.7186 26.8436 40.5791 28.08 41.1595Z" fill="#3F3BFE"/>
<path d="M68.7939 41.7699C68.4339 41.7699 67.8739 41.7299 67.1139 41.6499C66.3739 41.5699 65.6639 41.3399 64.9839 40.9599V46.7499H60.6039V29.3499C60.6039 28.4899 60.9339 27.7899 61.5939 27.2499C62.2539 26.7099 63.1239 26.3099 64.2039 26.0499C65.3039 25.7699 66.5139 25.6299 67.8339 25.6299C69.3339 25.6299 70.6639 25.8899 71.8239 26.4099C72.9839 26.9099 73.8839 27.7599 74.5239 28.9599C75.1839 30.1599 75.5139 31.7999 75.5139 33.8799C75.5139 35.4399 75.2439 36.8199 74.7039 38.0199C74.1839 39.1999 73.4139 40.1199 72.3939 40.7799C71.3939 41.4399 70.1939 41.7699 68.7939 41.7699ZM67.4739 38.1699C68.6539 38.1699 69.5439 37.8399 70.1439 37.1799C70.7439 36.5199 71.0439 35.3699 71.0439 33.7299C71.0439 32.3499 70.8039 31.2799 70.3239 30.5199C69.8439 29.7599 68.9539 29.3799 67.6539 29.3799C66.6939 29.3799 66.0039 29.4799 65.5839 29.6799C65.1839 29.8599 64.9839 30.0999 64.9839 30.3999V37.5399C65.3639 37.7599 65.7739 37.9199 66.2139 38.0199C66.6739 38.1199 67.0939 38.1699 67.4739 38.1699Z" fill="#3F3BFE"/>
<path d="M80.984 47.1999C79.904 47.1999 79.004 47.0199 78.284 46.6599V43.0299C78.884 43.2499 79.474 43.3599 80.054 43.3599C80.634 43.3599 81.134 43.1899 81.554 42.8499C81.974 42.5299 82.304 41.9599 82.544 41.1399L76.454 26.1399H81.554L84.794 36.0999L87.974 26.1399H92.774L86.804 41.5599C85.984 43.6599 85.074 45.1199 84.074 45.9399C83.094 46.7799 82.064 47.1999 80.984 47.1999Z" fill="#3F3BFE"/>
</svg>
